<svg width="26" height="18" viewBox="0 0 26 18" xmlns="http://www.w3.org/2000/svg">
<path d="M16.0648 0.233832C16.2548 0.163832 16.4548 0.033832 16.6448 0.043832C18.7348 0.163832 20.5848 0.933832 22.2748 2.13383C22.3648 2.20383 22.4448 2.31383 22.4948 2.41383C24.3648 6.03383 25.4548 9.86383 25.5748 13.9438C25.5748 14.2238 25.4848 14.4138 25.2948 14.6138C23.6048 16.3538 21.5248 17.1938 19.1348 17.3438C18.8648 17.3638 18.6748 17.2938 18.5148 17.0738C18.1548 16.6038 17.7748 16.1438 17.3548 15.6338C18.8048 15.1538 20.1048 14.5238 21.0748 13.3438C15.5248 16.5438 9.9648 16.2738 4.3748 13.3638C4.7248 14.1138 5.8548 14.8638 7.9748 15.7538C7.5348 16.3038 7.1048 16.8438 6.6548 17.3738C6.6048 17.4338 6.4848 17.4638 6.4048 17.4638C4.2048 17.3738 2.2348 16.7138 0.634805 15.1438C0.174805 14.6938 -0.0352001 14.2138 0.00479991 13.5338C0.2048 9.62383 1.24481 5.95383 3.03481 2.47383C3.12481 2.29383 3.2848 2.12383 3.4548 2.00383C5.0748 0.883832 6.8548 0.173832 8.8348 0.00383204C9.0448 -0.016168 9.2548 0.0438319 9.4748 0.143832C7.5548 0.723832 5.7248 1.42383 4.1548 2.70383C6.8748 1.49383 9.7148 0.863832 12.6848 0.883832C15.6648 0.903832 18.4948 1.59383 21.1948 2.83383C19.6748 1.63383 17.9248 0.903832 16.0948 0.343832C16.0948 0.303832 16.0748 0.263832 16.0648 0.223832V0.233832ZM10.9548 9.96383C10.9548 8.69383 9.99481 7.65383 8.78481 7.63383C7.53481 7.61383 6.4948 8.65383 6.4848 9.93383C6.4748 11.1938 7.4848 12.2538 8.7048 12.2638C9.9448 12.2638 10.9448 11.2538 10.9448 9.97383L10.9548 9.96383ZM14.5048 9.96383C14.5048 11.2438 15.5048 12.2638 16.7548 12.2538C17.9848 12.2538 18.9848 11.1938 18.9748 9.92383C18.9748 8.67383 17.9548 7.62383 16.7648 7.62383C15.5048 7.62383 14.5048 8.65383 14.5148 9.95383L14.5048 9.96383Z"/>
</svg>
