<svg width="22" height="22" viewBox="0 0 22 22" xmlns="http://www.w3.org/2000/svg">
<path d="M13.3744 21.32H7.00444C6.90444 21.31 6.81444 21.3 6.71444 21.29C6.07444 21.22 5.42445 21.19 4.79445 21.06C2.49445 20.58 0.984443 19.23 0.354443 16.94C0.0444429 15.79 0.0144444 14.61 0.00444444 13.43C-0.00555556 11.58 0.00444444 9.72 0.00444444 7.87C0.00444444 6.83 0.0444445 5.8 0.254444 4.78C0.544444 3.3 1.25444 2.09 2.49444 1.2C3.55444 0.44 4.76444 0.11 6.03444 0.08C8.27444 0.02 10.5144 0 12.7644 0C13.9644 0 15.1644 0 16.3544 0.19C18.8344 0.6 20.5044 2.16 21.0544 4.61C21.2544 5.47 21.2844 6.34 21.3044 7.22C21.3044 7.49 21.3244 7.76 21.3444 8.03V13.36C21.3344 13.61 21.3144 13.86 21.3044 14.1C21.2844 14.97 21.2544 15.85 21.0444 16.7C20.4844 18.98 19.1044 20.44 16.8144 21C15.9444 21.21 15.0544 21.25 14.1744 21.27C13.9144 21.27 13.6544 21.29 13.3844 21.31L13.3744 21.32ZM19.3744 10.33C19.3744 10.33 19.3944 10.33 19.4044 10.33C19.4044 9.55 19.4244 8.76 19.4044 7.98C19.3644 7.04 19.3444 6.09 19.2044 5.16C18.9644 3.65 18.0844 2.64 16.5844 2.25C15.9744 2.09 15.3444 1.98 14.7244 1.96C13.2544 1.9 11.7844 1.9 10.3144 1.89C9.25444 1.89 8.19445 1.89 7.12445 1.92C6.34445 1.93 5.57444 1.97 4.81444 2.17C3.56444 2.5 2.70445 3.24 2.29445 4.48C1.98445 5.42 1.90445 6.4 1.90445 7.38C1.88445 9.63 1.88445 11.88 1.90445 14.13C1.90445 14.81 1.97444 15.49 2.11444 16.16C2.45444 17.82 3.44444 18.88 5.14444 19.18C5.83444 19.3 6.54444 19.37 7.25444 19.38C9.27444 19.41 11.2944 19.43 13.3144 19.41C14.2444 19.41 15.1744 19.35 16.0944 19.21C17.7244 18.97 18.8244 17.94 19.1544 16.36C19.2844 15.74 19.3644 15.1 19.3744 14.46C19.4044 13.09 19.3844 11.72 19.3844 10.36L19.3744 10.33Z" />
<path d="M10.6641 5.17993C13.6841 5.17993 16.1241 7.60993 16.1441 10.6399C16.1641 13.6499 13.7241 16.1099 10.6941 16.1199C7.66411 16.1299 5.2041 13.6899 5.2041 10.6499C5.2041 7.61993 7.63411 5.17993 10.6641 5.17993ZM10.6841 7.09993C8.7141 7.09993 7.13411 8.66993 7.12411 10.6299C7.12411 12.5999 8.69411 14.1899 10.6541 14.1999C12.6341 14.1999 14.2241 12.6299 14.2241 10.6599C14.2241 8.68993 12.6541 7.10993 10.6841 7.09993Z" />
<path d="M16.1341 3.03003C17.0541 3.03003 17.7841 3.74003 17.7941 4.66003C17.8041 5.59003 17.0741 6.33003 16.1541 6.34003C15.2441 6.34003 14.4941 5.61003 14.4941 4.71003C14.4941 3.78003 15.2141 3.04003 16.1341 3.04003V3.03003Z" />
</svg>
