<svg width="23" height="19" viewBox="0 0 23 19" xmlns="http://www.w3.org/2000/svg">
<path fill-rule="evenodd" clip-rule="evenodd" d="M1.51558 7.87C7.43558 5.29 11.3856 3.59 13.3556 2.77C18.9956 0.42 20.1656 0.02 20.9256 0C21.0956 0 21.4656 0.04 21.7156 0.24C21.9256 0.41 21.9756 0.63 22.0056 0.79C22.0356 0.95 22.0656 1.31 22.0356 1.59C21.7256 4.8 20.4056 12.59 19.7356 16.19C19.4556 17.71 18.8856 18.22 18.3456 18.27C17.1656 18.38 16.2756 17.49 15.1256 16.74C13.3356 15.57 12.3256 14.84 10.5956 13.7C8.59558 12.38 9.88558 11.65 11.0356 10.47C11.3356 10.16 16.5256 5.43 16.6256 5.01C16.6356 4.96 16.6456 4.76 16.5356 4.65C16.4256 4.54 16.2456 4.58 16.1156 4.61C15.9356 4.65 13.0856 6.54 7.55558 10.27C6.74558 10.83 6.01558 11.1 5.35558 11.08C4.63558 11.06 3.23558 10.67 2.19558 10.33C0.925584 9.92 -0.0844184 9.7 0.00558162 9C0.0555816 8.63 0.555584 8.26 1.51558 7.88V7.87Z" />
</svg>
