<svg width="23" height="23" viewBox="0 0 23 23" xmlns="http://www.w3.org/2000/svg">
<path d="M10.82 0C11.3 0 11.77 0 12.25 0C12.52 0.03 12.79 0.06 13.06 0.1C15.62 0.49 17.83 1.56 19.62 3.46C21.21 5.14 22.24 7.1 22.63 9.38C22.7 9.79 22.74 10.2 22.8 10.61V12.04C22.79 12.1 22.77 12.17 22.76 12.23C22.69 13.22 22.48 14.18 22.15 15.12C19.83 21.56 12.26 24.51 6.19 21.35C6.09 21.3 5.93 21.28 5.82 21.31C4.07 21.76 2.32 22.22 0.57 22.68C0.39 22.73 0.2 22.77 0 22.82C0.03 22.72 0.05 22.64 0.07 22.57C0.57 20.76 1.07 18.95 1.56 17.14C1.59 17.04 1.57 16.9 1.52 16.81C0.24 14.46 -0.18 11.98 0.25 9.36C1.05 4.53 4.91 1 9.53 0.18C9.96 0.1 10.39 0.06 10.83 0H10.82ZM2.74 20.08C2.85 20.06 2.9 20.04 2.96 20.03C4 19.76 5.04 19.49 6.08 19.22C6.23 19.18 6.35 19.19 6.49 19.28C8.58 20.53 10.82 20.97 13.22 20.51C18.36 19.53 21.68 14.68 20.74 9.54C19.86 4.74 15.23 1.34 10.38 1.93C7.7 2.26 5.52 3.48 3.91 5.65C2.35 7.75 1.73 10.12 2.12 12.73C2.32 14.08 2.82 15.31 3.57 16.45C3.66 16.58 3.67 16.69 3.63 16.84C3.45 17.45 3.29 18.07 3.12 18.68C2.99 19.13 2.87 19.59 2.74 20.08Z" />
<path d="M14.49 16.6801C13.69 16.7101 13.03 16.4101 12.35 16.1801C10.43 15.5201 8.96001 14.2701 7.69001 12.7301C7.08001 11.9901 6.48001 11.2501 6.08001 10.3701C5.66001 9.44009 5.50001 8.49009 5.94001 7.53009C6.13001 7.12009 6.42001 6.75009 6.69001 6.39009C6.84001 6.18009 7.09001 6.08009 7.35001 6.07009C7.62001 6.06009 7.89001 6.03009 8.15001 6.09009C8.30001 6.12009 8.46001 6.27009 8.54001 6.41009C8.69001 6.67009 8.79001 6.96009 8.91001 7.24009C9.11001 7.70009 9.29001 8.17009 9.50001 8.63009C9.60001 8.86009 9.60001 9.08009 9.45001 9.28009C9.26001 9.54009 9.08001 9.80009 8.87001 10.0401C8.55001 10.4201 8.54001 10.4601 8.79001 10.8701C9.70001 12.3501 10.94 13.4301 12.55 14.0801C12.89 14.2201 13.01 14.1901 13.25 13.9101C13.52 13.5801 13.8 13.2501 14.06 12.9001C14.2 12.7101 14.37 12.6601 14.58 12.7201C14.66 12.7401 14.74 12.7701 14.81 12.8001C15.52 13.1101 16.22 13.4301 16.93 13.7301C17.14 13.8201 17.24 13.9701 17.23 14.2001C17.21 15.0501 16.92 15.7601 16.14 16.2101C15.61 16.5201 15.06 16.7301 14.49 16.6901V16.6801Z" />
</svg>
